<svg width="194" height="56" viewBox="0 0 194 56" fill="none" xmlns="http://www.w3.org/2000/svg">
<path d="M48.2354 55.9896H36.3046L11.8384 7.35101C11.7545 7.18777 11.5866 7.08312 11.4018 7.08312C10.9485 7.08312 10.579 7.70262 10.579 8.15468V55.9938H0V12.872C0 11.1852 0.843804 9.60714 2.24595 8.66534L13.8787 0.863075C16.4227 -0.840532 19.8861 0.0677787 21.263 2.7969L43.2775 46.5591" fill="#3343C0"/>
<path d="M24.2891 0H36.1354L60.4325 48.6464C60.5159 48.8097 60.6826 48.9143 60.866 48.9143C61.3162 48.9143 61.683 48.2948 61.683 47.8427V0H72.1871V43.1208C72.1871 44.8078 71.3493 46.3859 69.9571 47.3278L58.4067 55.1306C55.8807 56.8344 52.4418 55.926 51.0746 53.1967L29.216 9.43123" fill="#4699FF"/>
<path d="M98.3364 55.8424C94.7306 55.8424 91.5801 55.2251 88.8749 53.9906C86.173 52.756 83.9333 51.0931 82.1557 49.0085C80.378 46.9239 79.0389 44.5931 78.1417 42.0194C77.2411 39.4457 76.7891 36.8214 76.7891 34.1431V32.6758C76.7891 29.8964 77.2377 27.2181 78.1417 24.6444C79.0423 22.0708 80.3814 19.7534 82.1557 17.6958C83.9333 15.6382 86.1326 14.0022 88.7568 12.7913C91.3811 11.5837 94.4203 10.9766 97.8676 10.9766C102.398 10.9766 106.182 11.9683 109.218 13.9483C112.254 15.9317 114.558 18.5323 116.13 21.7469C117.698 24.9649 118.484 28.4257 118.484 32.1328V35.995H86.9758C87.3368 39.2905 88.4296 41.9418 90.2579 43.9488C92.0861 45.9558 94.7744 46.961 98.3263 46.961C100.9 46.961 103.025 46.4348 104.698 45.379C106.371 44.3232 107.44 43.0246 107.903 41.4797H117.786C116.858 45.804 114.669 49.2783 111.222 51.906C107.771 54.5303 103.474 55.8458 98.3263 55.8458L98.3364 55.8424ZM97.871 19.858C94.8318 19.858 92.4133 20.708 90.612 22.4047C88.8108 24.1047 87.6504 26.4457 87.1377 29.4309H108.22C107.808 26.4457 106.739 24.1014 105.015 22.4047C103.288 20.7046 100.91 19.858 97.871 19.858Z" fill="#141943"/>
<path d="M168.867 10.8817L177.259 8.2439C178.653 7.8054 179.604 6.52361 179.621 5.06305L179.675 0H168.948L168.867 10.8817Z" fill="#4699FF"/>
<path d="M193.281 46.3377L190.1 56.0017H186.956C182.068 55.9241 179.306 55.6171 176.611 54.5479C173.916 53.4786 171.922 51.674 170.63 49.1441C169.338 46.6143 168.691 43.1501 168.691 38.7482V20.3377H156.598L149.558 32.5551L164.994 56.0017H152.486L141.554 38.8291H140.316L129.988 56.0017H118.195L132.396 33.051L119.109 10.9402L131.597 10.8828L140.566 26.6994H141.8L147.433 16.2562C149.201 12.9809 152.621 10.9402 156.342 10.9402H162.015H162.012L193.22 10.9435L189.907 20.3377H179.417V39.4902C179.417 41.6895 180.007 43.3828 181.191 44.5634C182.372 45.7474 184.065 46.3377 186.265 46.3377H193.281Z" fill="#141943"/>
</svg>
