<svg width="1101" height="319" viewBox="0 0 1101 319" fill="none" xmlns="http://www.w3.org/2000/svg">
<path d="M274.765 318.941H206.803L67.4357 41.8746C66.9575 40.9447 66.0009 40.3486 64.9487 40.3486C62.3661 40.3486 60.2617 43.8775 60.2617 46.4526V318.965H0V73.3247C0 63.7156 4.80659 54.7265 12.7937 49.3616L79.0576 4.91645C93.5491 -4.78804 113.278 0.386097 121.121 15.9324L246.523 265.221" fill="white"/>
<path d="M138.359 0H205.84L344.244 277.111C344.719 278.041 345.669 278.637 346.714 278.637C349.278 278.637 351.368 275.108 351.368 272.533V0H411.203V245.635C411.203 255.245 406.43 264.235 398.5 269.6L332.705 314.048C318.316 323.754 298.727 318.579 290.939 303.032L166.425 53.7244" fill="white"/>
<path d="M560.155 318.091C539.615 318.091 521.669 314.575 506.259 307.542C490.868 300.51 478.11 291.037 467.984 279.162C457.858 267.287 450.23 254.01 445.119 239.349C439.989 224.688 437.414 209.739 437.414 194.483V186.124C437.414 170.291 439.97 155.035 445.119 140.374C450.249 125.713 457.877 112.512 467.984 100.791C478.11 89.0704 490.638 79.7513 505.586 72.8532C520.535 65.9743 537.847 62.5156 557.484 62.5156C583.289 62.5156 604.848 68.1648 622.14 79.4438C639.433 90.7421 652.557 105.557 661.511 123.868C670.445 142.199 674.922 161.914 674.922 183.031V205.032H495.441C497.497 223.804 503.723 238.907 514.137 250.34C524.551 261.773 539.865 267.499 560.097 267.499C574.758 267.499 586.863 264.501 596.393 258.487C605.924 252.473 612.015 245.075 614.647 236.275H670.945C665.661 260.908 653.191 280.699 633.554 295.668C613.898 310.617 589.418 318.11 560.097 318.11L560.155 318.091ZM557.504 113.108C540.191 113.108 526.415 117.95 516.154 127.615C505.894 137.299 499.284 150.635 496.364 167.64H616.453C614.109 150.635 608.018 137.28 598.199 127.615C588.362 117.931 574.816 113.108 557.504 113.108Z" fill="white"/>
<path d="M961.922 61.9868L1009.73 46.9609C1017.66 44.463 1023.08 37.1614 1023.18 28.8414L1023.48 0H962.383L961.922 61.9868Z" fill="white"/>
<path d="M1100.99 263.951L1082.87 319.001H1064.97C1037.12 318.559 1021.39 316.811 1006.03 310.72C990.683 304.628 979.327 294.349 971.968 279.938C964.609 265.526 960.92 245.793 960.92 220.718V115.843H892.036L851.936 185.439L939.861 319.001H868.614L806.34 221.179H799.289L740.454 319.001H673.281L754.174 188.264L678.488 62.311L749.62 61.9844L800.711 152.082H807.743L839.831 92.5935C849.899 73.936 869.383 62.311 890.576 62.311H922.894H922.875L1100.65 62.3302L1081.78 115.843H1022.02V224.945C1022.02 237.473 1025.38 247.119 1032.13 253.844C1038.85 260.588 1048.5 263.951 1061.03 263.951H1100.99Z" fill="white"/>
</svg>
